<?xml version="1.0" encoding="UTF-8"?>
<!DOCTYPE svg PUBLIC "-//W3C//DTD SVG 1.1//EN" "http://www.w3.org/Graphics/SVG/1.1/DTD/svg11.dtd">
<svg xmlns="http://www.w3.org/2000/svg" version="1.1" width="340px" height="380px" style="shape-rendering:geometricPrecision; text-rendering:geometricPrecision; image-rendering:optimizeQuality; fill-rule:evenodd; clip-rule:evenodd" xmlns:xlink="http://www.w3.org/1999/xlink">
<g><path style="opacity:1" fill="#e24328" d="M 133.5,81.5 C 116.5,81.5 99.5,81.5 82.5,81.5C 82.1667,81.5 81.8333,81.5 81.5,81.5C 88.6702,58.1563 96.3368,34.9896 104.5,12C 107.834,10.7879 110.334,11.6212 112,14.5C 119.274,36.8203 126.44,59.1536 133.5,81.5 Z"/></g>
<g><path style="opacity:1" fill="#e24328" d="M 257.5,81.5 C 257.167,81.5 256.833,81.5 256.5,81.5C 239.466,82.1521 222.8,81.4854 206.5,79.5C 213.135,56.7627 220.468,34.2627 228.5,12C 231.834,10.7879 234.334,11.6212 236,14.5C 243.274,36.8203 250.44,59.1536 257.5,81.5 Z"/></g>
<g><path style="opacity:1" fill="#fb6c26" d="M 206.5,79.5 C 222.8,81.4854 239.466,82.1521 256.5,81.5C 228.184,118.477 199.518,155.144 170.5,191.5C 182.166,154.834 193.833,118.167 205.5,81.5C 205.328,80.5084 205.662,79.8417 206.5,79.5 Z"/></g>
<g><path style="opacity:1" fill="#fca126" d="M 81.5,81.5 C 81.8333,81.5 82.1667,81.5 82.5,81.5C 110.816,118.477 139.482,155.144 168.5,191.5C 169.167,192.833 169.833,192.833 170.5,191.5C 199.518,155.144 228.184,118.477 256.5,81.5C 256.833,81.5 257.167,81.5 257.5,81.5C 260.994,92.1315 264.494,102.798 268,113.5C 268.667,116.5 268.667,119.5 268,122.5C 235.307,146.693 202.474,170.693 169.5,194.5C 136.526,170.693 103.693,146.693 71,122.5C 70.3333,119.5 70.3333,116.5 71,113.5C 74.6121,102.831 78.1121,92.1643 81.5,81.5 Z"/></g>
<g><path style="opacity:1" fill="#fb6c26" d="M 82.5,81.5 C 99.5,81.5 116.5,81.5 133.5,81.5C 145.171,118.178 156.837,154.845 168.5,191.5C 139.482,155.144 110.816,118.477 82.5,81.5 Z"/></g>
<g><path style="opacity:1" fill="#e24328" d="M 133.5,81.5 C 157.5,81.5 181.5,81.5 205.5,81.5C 193.833,118.167 182.166,154.834 170.5,191.5C 169.833,192.833 169.167,192.833 168.5,191.5C 156.837,154.845 145.171,118.178 133.5,81.5 Z"/></g>
<g><path style="opacity:0.957" fill="#e24328" d="M 171.5,296.5 C 170.351,296.791 169.684,297.624 169.5,299C 168.131,306.037 166.465,312.87 164.5,319.5C 160.203,314.702 155.703,310.035 151,305.5C 150.333,303.167 150.333,300.833 151,298.5C 160.414,281.337 170.08,264.337 180,247.5C 180.944,248.263 181.444,249.263 181.5,250.5C 177.781,265.764 174.447,281.098 171.5,296.5 Z"/></g>
<g><path style="opacity:0.944" fill="#44417f" d="M -0.5,345.5 C -0.5,323.833 -0.5,302.167 -0.5,280.5C 2.84965,273.481 8.51632,269.981 16.5,270C 25.8333,269.333 35.1667,269.333 44.5,270C 59.7624,272.193 64.7624,280.526 59.5,295C 56.1426,296.011 52.8093,296.677 49.5,297C 48.6695,293.207 47.8362,289.373 47,285.5C 46.0975,284.299 44.9308,283.465 43.5,283C 34.8333,282.333 26.1667,282.333 17.5,283C 15.3333,283.833 13.8333,285.333 13,287.5C 12.028,305.258 12.3613,322.924 14,340.5C 14.8333,341.333 15.6667,342.167 16.5,343C 25.8333,343.667 35.1667,343.667 44.5,343C 48.0282,338.872 49.3616,334.039 48.5,328.5C 53.0821,328.684 57.2487,330.018 61,332.5C 63.9614,344.361 59.7947,352.194 48.5,356C 36.5,356.667 24.5,356.667 12.5,356C 6.10987,354.833 1.77654,351.333 -0.5,345.5 Z"/></g>
<g><path style="opacity:0.919" fill="#44417f" d="M 79.5,269.5 C 98.1696,269.333 116.836,269.5 135.5,270C 136.833,274 136.833,278 135.5,282C 128.508,282.5 121.508,282.666 114.5,282.5C 114.5,302.833 114.5,323.167 114.5,343.5C 121.841,343.334 129.174,343.5 136.5,344C 137.464,348.066 137.797,352.233 137.5,356.5C 117.497,356.667 97.4972,356.5 77.5,356C 76.1667,352 76.1667,348 77.5,344C 85.1594,343.5 92.8261,343.334 100.5,343.5C 100.5,323.167 100.5,302.833 100.5,282.5C 93.1667,282.5 85.8333,282.5 78.5,282.5C 78.2307,278.069 78.564,273.735 79.5,269.5 Z"/></g>
<g><path style="opacity:0.925" fill="#44417f" d="M 216.5,269.5 C 226.172,269.334 235.839,269.5 245.5,270C 258.644,271.819 264.144,279.319 262,292.5C 261.5,293.667 260.667,294.5 259.5,295C 256.736,295.532 254.07,296.366 251.5,297.5C 250.833,297.167 250.167,296.833 249.5,296.5C 248.676,293.215 248.176,289.882 248,286.5C 246.786,284.951 245.286,283.785 243.5,283C 234.091,282.083 224.758,282.416 215.5,284C 214.874,284.75 214.374,285.584 214,286.5C 213.333,304.5 213.333,322.5 214,340.5C 214.903,341.701 216.069,342.535 217.5,343C 226.5,343.667 235.5,343.667 244.5,343C 246.333,342.5 247.5,341.333 248,339.5C 248.207,335.911 248.707,332.411 249.5,329C 253.225,329.011 256.892,329.677 260.5,331C 263.227,337.596 262.727,344.096 259,350.5C 257.269,352.617 255.102,354.117 252.5,355C 239.557,356.589 226.557,356.922 213.5,356C 207.864,355.27 203.697,352.436 201,347.5C 199.378,325.884 199.045,304.217 200,282.5C 200.848,279.302 202.348,276.469 204.5,274C 208.301,271.584 212.301,270.084 216.5,269.5 Z"/></g>
<g><path style="opacity:0.939" fill="#44417f" d="M 339.5,280.5 C 339.5,302.167 339.5,323.833 339.5,345.5C 337.482,351.67 333.149,355.17 326.5,356C 310.156,356.833 293.823,356.666 277.5,355.5C 276.342,327.542 276.175,299.542 277,271.5C 277.5,271 278,270.5 278.5,270C 295.539,269.09 312.539,269.423 329.5,271C 334.02,273.022 337.353,276.189 339.5,280.5 Z M 290.5,282.5 C 301.603,282.046 312.603,282.546 323.5,284C 324.701,284.903 325.535,286.069 326,287.5C 326.667,304.5 326.667,321.5 326,338.5C 325.417,340.002 324.584,341.335 323.5,342.5C 312.552,343.478 301.552,343.811 290.5,343.5C 290.5,323.167 290.5,302.833 290.5,282.5 Z"/></g>
<g><path style="opacity:0.938" fill="#fba226" d="M 171.5,296.5 C 175.463,300.964 179.63,305.298 184,309.5C 185.373,311.695 185.706,314.029 185,316.5C 176.333,332.5 167.667,348.5 159,364.5C 158.092,366.439 156.592,367.439 154.5,367.5C 157.516,351.437 160.849,335.437 164.5,319.5C 166.465,312.87 168.131,306.037 169.5,299C 169.684,297.624 170.351,296.791 171.5,296.5 Z"/></g>
</svg>
